<svg xmlns="http://www.w3.org/2000/svg" width="512" height="512" viewBox="0 0 512 512">
  <defs>
    <linearGradient id="background" x1="0" y1="0" x2="1" y2="1">
      <stop offset="0" stop-color="#173A5E"/>
      <stop offset="0.5" stop-color="#0A2037"/>
      <stop offset="1" stop-color="#030A12"/>
    </linearGradient>
    <linearGradient id="photo" x1="0" y1="0" x2="0" y2="1">
      <stop offset="0" stop-color="#446E91"/>
      <stop offset="1" stop-color="#152B41"/>
    </linearGradient>
    <linearGradient id="gold" x1="0" y1="0" x2="1" y2="1">
      <stop offset="0" stop-color="#F5D488"/>
      <stop offset="0.55" stop-color="#D8A84F"/>
      <stop offset="1" stop-color="#9A6722"/>
    </linearGradient>
    <filter id="shadow" x="-30%" y="-30%" width="160%" height="160%">
      <feGaussianBlur in="SourceAlpha" stdDeviation="10"/>
      <feOffset dy="8"/>
      <feColorMatrix values="0 0 0 0 0  0 0 0 0 0  0 0 0 0 0  0 0 0 .45 0"/>
      <feMerge>
        <feMergeNode/>
        <feMergeNode in="SourceGraphic"/>
      </feMerge>
    </filter>
  </defs>

  <rect x="18" y="18" width="476" height="476" rx="108" fill="url(#background)"/>
  <rect x="30" y="30" width="452" height="452" rx="98"
        fill="none" stroke="url(#gold)" stroke-width="8"/>

  <g filter="url(#shadow)">
    <rect x="82" y="88" width="348" height="326" rx="42"
          fill="url(#photo)" stroke="#E9C87A" stroke-opacity=".55" stroke-width="5"/>
    <circle cx="345" cy="161" r="35" fill="#F1CE78" opacity=".9"/>
    <path d="M88 329 L190 220 L253 283 L305 231 L424 345 L424 372 L88 372 Z"
          fill="#0B1A29" opacity=".92"/>
    <path d="M88 346 L177 276 L231 322 L272 293 L424 382 L424 408 L88 408 Z"
          fill="#06111F"/>
  </g>

  <g fill="url(#gold)" filter="url(#shadow)">
    <path d="M141 176 C141 130 169 104 211 96 L221 122
             C193 132 181 148 179 169
             C207 174 224 195 224 222
             C224 258 201 281 168 281
             C132 281 112 254 112 219
             C112 203 121 187 141 176 Z"/>
    <path d="M284 176 C284 130 312 104 354 96 L364 122
             C336 132 324 148 322 169
             C350 174 367 195 367 222
             C367 258 344 281 311 281
             C275 281 255 254 255 219
             C255 203 264 187 284 176 Z"/>
  </g>

  <rect x="140" y="316" width="232" height="15" rx="8" fill="#FFFFFF" opacity=".95"/>
  <rect x="167" y="347" width="178" height="13" rx="7" fill="#FFFFFF" opacity=".78"/>
  <rect x="199" y="376" width="114" height="11" rx="6" fill="#E9C87A" opacity=".85"/>
</svg>
